<svg width="40" height="40" viewBox="0 0 40 40" fill="none" xmlns="http://www.w3.org/2000/svg">
<path d="M30.6891 40.0021L23.0581 26.8703C22.6887 26.235 22.7679 25.5116 23.135 24.984C23.445 24.5399 23.9573 24.2321 24.575 24.2321L33.7385 40.0021H30.6891Z" fill="#091521"/>
<path d="M18.4742 29.4822L24.5861 40.0021H27.6376L20 26.8572L18.4742 29.4822Z" fill="#091521"/>
<path d="M9.31073 40.0021L18.4742 24.2321H17.1946C16.7066 24.2321 16.2339 24.3486 15.8118 24.5597C15.2863 24.8235 14.84 25.2368 14.5344 25.7623L6.26138 39.9999H9.31073V40.0021Z" fill="#091521"/>
<path d="M15.4138 40.0021L24.5772 24.2321H23.2977C22.7678 24.2321 22.26 24.3684 21.8115 24.6146C21.33 24.8807 20.9211 25.272 20.6353 25.7645L12.3622 40.0021H15.4138Z" fill="#091521"/>
<path d="M40 9.31295L26.8682 16.944C26.2834 17.2848 25.6238 17.243 25.1094 16.9484C24.5971 16.6538 24.2299 16.1042 24.2299 15.427L40 6.2636V9.31295Z" fill="#091521"/>
<path d="M29.4823 21.5279L40 15.416V12.3645L26.8572 20.0021L29.4823 21.5279Z" fill="#091521"/>
<path d="M40 30.6914L24.2299 21.5279V22.8075C24.2299 23.3373 24.3663 23.8496 24.6147 24.2981C24.8807 24.7773 25.2721 25.1841 25.7623 25.4699L40 33.7429V30.6914Z" fill="#091521"/>
<path d="M40 24.5883L24.2299 15.4248V16.7044C24.2299 17.2936 24.3992 17.8586 24.7026 18.3423C24.9643 18.7578 25.3248 19.1117 25.7623 19.3668L40 27.6398V24.5883Z" fill="#091521"/>
<path d="M9.31073 0L16.9418 13.1318C17.2892 13.7298 17.2386 14.4069 16.9264 14.9236C16.6274 15.4182 16.0866 15.77 15.4248 15.77L6.26138 0H9.31073Z" fill="#091521"/>
<path d="M21.5257 10.5199L15.4138 0H12.3622L19.9999 13.145L21.5257 10.5199Z" fill="#091521"/>
<path d="M30.6892 0L21.5257 15.77H22.8053C23.3637 15.77 23.9001 15.6183 24.3662 15.3457C24.8147 15.0819 25.1951 14.7037 25.4655 14.2398L33.7385 0.00220067H30.6892V0Z" fill="#091521"/>
<path d="M24.5861 0L15.4226 15.77H16.7021C17.3265 15.77 17.9223 15.5809 18.4236 15.2446C18.8039 14.9895 19.1271 14.6488 19.3646 14.2398L27.6376 0.00220067H24.5861V0Z" fill="#091521"/>
<path d="M0 30.6914L13.1318 23.0603C13.7474 22.7041 14.4421 22.7657 14.9653 23.1021C15.438 23.4055 15.77 23.9353 15.77 24.5773L0 33.7407V30.6914Z" fill="#091521"/>
<path d="M10.5177 18.4763L0 24.5882V27.6398L13.145 20.0021L10.5177 18.4763Z" fill="#091521"/>
<path d="M0 9.31295L15.77 18.4764V17.1969C15.77 16.6494 15.6249 16.1218 15.3589 15.6623C15.0951 15.2028 14.7125 14.8115 14.2376 14.5366L0 6.2636V9.31295Z" fill="#091521"/>
<path d="M0 15.416L15.77 24.5794V23.2999C15.77 22.7195 15.6073 22.1632 15.3127 21.6862C15.0511 21.2596 14.6839 20.8969 14.2376 20.6375L0 12.3644V15.416Z" fill="#091521"/>
</svg>
