<svg width="24" height="24" viewBox="0 0 24 24" fill="none" xmlns="http://www.w3.org/2000/svg">
<path fill-rule="evenodd" clip-rule="evenodd" d="M10.5737 8.66444C10.2216 8.31355 9.65178 8.3145 9.30089 8.66656C8.95001 9.01862 8.95096 9.58847 9.30301 9.93935L10.9684 11.5992L3.90098 11.5992C3.40392 11.5992 3.00098 12.0022 3.00098 12.4992C3.00098 12.9963 3.40392 13.3992 3.90098 13.3992L10.9685 13.3992L9.30301 15.0592C8.95095 15.4101 8.95001 15.9799 9.3009 16.332C9.65178 16.684 10.2216 16.685 10.5737 16.3341L13.7817 13.1367C13.9511 12.9678 14.0464 12.7384 14.0464 12.4992C14.0464 12.26 13.9511 12.0306 13.7817 11.8618L10.5737 8.66444ZM11.4497 5.39759C11.4497 5.89465 11.8527 6.29759 12.3497 6.29759L14.186 6.29759L18.1451 6.29759L18.1451 11.2987L18.1451 13.6993L18.1451 13.7002L18.1451 18.7L14.186 18.7L12.3497 18.7C11.8527 18.7 11.4497 19.1029 11.4497 19.6C11.4497 20.0971 11.8527 20.5 12.3497 20.5L14.186 20.5L18.8451 20.5C19.4526 20.5 19.9451 20.0075 19.9451 19.4L19.9451 13.6993L19.9451 11.2987L19.9451 5.59759C19.9451 4.99008 19.4526 4.49759 18.8451 4.49759L14.186 4.49759L12.3497 4.49759C11.8527 4.49759 11.4497 4.90054 11.4497 5.39759Z" fill="#091521"/>
</svg>
