<svg width="24" height="24" viewBox="0 0 24 24" fill="none" xmlns="http://www.w3.org/2000/svg">
<path fill-rule="evenodd" clip-rule="evenodd" d="M9.80225 4.65527C8.75291 4.65527 7.90225 5.50593 7.90225 6.55527V16.0808C7.90225 17.1302 8.7529 17.9808 9.80224 17.9808H17.0772C18.1266 17.9808 18.9772 17.1302 18.9772 16.0808V6.55527C18.9772 5.50593 18.1266 4.65527 17.0772 4.65527H9.80225ZM9.70225 6.55527C9.70225 6.50005 9.74702 6.45527 9.80225 6.45527H17.0772C17.1325 6.45527 17.1772 6.50004 17.1772 6.55527V16.0808C17.1772 16.1361 17.1325 16.1808 17.0772 16.1808H9.80224C9.74702 16.1808 9.70225 16.1361 9.70225 16.0808V6.55527ZM4.76172 9.13342C4.76172 8.11716 5.55959 7.28726 6.56309 7.23594V9.11685C6.56219 9.12224 6.56172 9.12777 6.56172 9.13342V9.92722H4.76172V9.13342ZM13.9367 18.759C13.9458 18.759 13.9546 18.7578 13.963 18.7555H15.8343C15.784 19.76 14.9537 20.559 13.9367 20.559H13.0273V18.759H13.9367ZM6.56172 11.5148V13.1024H4.76172V11.5148H6.56172ZM6.56172 14.69V16.2776H4.76172V14.69H6.56172ZM6.56172 17.8652V18.659C6.56172 18.7142 6.60649 18.759 6.66172 18.759H7.57109V20.559H6.66172C5.61238 20.559 4.76172 19.7083 4.76172 18.659V17.8652H6.56172ZM9.38984 18.759H11.2086V20.559H9.38984V18.759Z" fill="#091521"/>
</svg>
