<svg width="24" height="24" viewBox="0 0 24 24" fill="none" xmlns="http://www.w3.org/2000/svg">
<rect x="3" y="5.5" width="18" height="14" rx="1" stroke="#091521" stroke-width="1.8"/>
<path d="M15.0178 14.2036L13.314 12.4999M13.314 12.4999L15.0178 10.7962M13.314 12.4999L18.2241 12.4999" stroke="#091521" stroke-width="1.8" stroke-linecap="round" stroke-linejoin="round"/>
<path fill-rule="evenodd" clip-rule="evenodd" d="M5.5 10.0665C5.5 9.56945 5.90294 9.1665 6.4 9.1665H10.7789C11.2759 9.1665 11.6789 9.56945 11.6789 10.0665C11.6789 10.5636 11.2759 10.9665 10.7789 10.9665H6.4C5.90294 10.9665 5.5 10.5636 5.5 10.0665ZM5.5 12.5044C5.5 12.0073 5.90294 11.6044 6.4 11.6044H10.7789C11.2759 11.6044 11.6789 12.0073 11.6789 12.5044C11.6789 13.0014 11.2759 13.4044 10.7789 13.4044H6.4C5.90294 13.4044 5.5 13.0014 5.5 12.5044ZM6.4 14.0337C5.90294 14.0337 5.5 14.4366 5.5 14.9337C5.5 15.4308 5.90294 15.8337 6.4 15.8337H10.7789C11.2759 15.8337 11.6789 15.4308 11.6789 14.9337C11.6789 14.4366 11.2759 14.0337 10.7789 14.0337H6.4Z" fill="#091521"/>
</svg>
