<svg width="24" height="24" viewBox="0 0 24 24" fill="none" xmlns="http://www.w3.org/2000/svg">
<path fill-rule="evenodd" clip-rule="evenodd" d="M6.69879 8.91125C7.36086 8.91125 7.89757 8.37453 7.89757 7.71246C7.89757 7.05039 7.36086 6.51367 6.69879 6.51367C6.03672 6.51367 5.5 7.05039 5.5 7.71246C5.5 8.37453 6.03672 8.91125 6.69879 8.91125ZM6.69879 13.2071C7.36086 13.2071 7.89757 12.6704 7.89757 12.0084C7.89757 11.3463 7.36086 10.8096 6.69879 10.8096C6.03672 10.8096 5.5 11.3463 5.5 12.0084C5.5 12.6704 6.03672 13.2071 6.69879 13.2071ZM7.89757 16.3023C7.89757 16.9644 7.36086 17.5011 6.69879 17.5011C6.03672 17.5011 5.5 16.9644 5.5 16.3023C5.5 15.6402 6.03672 15.1035 6.69879 15.1035C7.36086 15.1035 7.89757 15.6402 7.89757 16.3023ZM9.83252 11.1068C9.33546 11.1068 8.93252 11.5098 8.93252 12.0068C8.93252 12.5039 9.33546 12.9068 9.83252 12.9068H17.5608C18.0578 12.9068 18.4608 12.5039 18.4608 12.0068C18.4608 11.5098 18.0578 11.1068 17.5608 11.1068H9.83252ZM8.93252 7.7041C8.93252 7.20705 9.33546 6.8041 9.83252 6.8041H17.5608C18.0578 6.8041 18.4608 7.20705 18.4608 7.7041C18.4608 8.20116 18.0578 8.6041 17.5608 8.6041H9.83252C9.33546 8.6041 8.93252 8.20116 8.93252 7.7041ZM9.83252 15.3939C9.33546 15.3939 8.93252 15.7969 8.93252 16.2939C8.93252 16.791 9.33546 17.1939 9.83252 17.1939H17.5608C18.0578 17.1939 18.4608 16.791 18.4608 16.2939C18.4608 15.7969 18.0578 15.3939 17.5608 15.3939H9.83252Z" fill="#091521"/>
</svg>
