<svg width="24" height="24" viewBox="0 0 24 24" fill="none" xmlns="http://www.w3.org/2000/svg">
<path fill-rule="evenodd" clip-rule="evenodd" d="M18.6472 7.37051C17.1825 5.27168 14.7507 3.90059 11.9999 3.90059C7.5264 3.90059 3.8999 7.52708 3.8999 12.0006C3.8999 16.4741 7.5264 20.1006 11.9999 20.1006C16.4734 20.1006 20.0999 16.4741 20.0999 12.0006C20.0999 11.5035 20.5028 11.1006 20.9999 11.1006C21.497 11.1006 21.8999 11.5035 21.8999 12.0006C21.8999 17.4682 17.4675 21.9006 11.9999 21.9006C6.53228 21.9006 2.0999 17.4682 2.0999 12.0006C2.0999 6.53297 6.53228 2.10059 11.9999 2.10059C15.3493 2.10059 18.309 3.76403 20.0998 6.30713L20.0998 4.87874C20.0998 4.38169 20.5027 3.97874 20.9998 3.97874C21.4968 3.97873 21.8998 4.38167 21.8998 4.87873L21.8998 8.2705C21.8998 8.50919 21.805 8.73811 21.6362 8.9069C21.4674 9.07568 21.2385 9.17051 20.9998 9.17051L17.608 9.17051C17.1109 9.17051 16.708 8.76756 16.708 8.27051C16.708 7.77345 17.1109 7.37051 17.608 7.37051L18.6472 7.37051Z" fill="#091521"/>
</svg>
