<svg width="24" height="24" viewBox="0 0 24 24" fill="none" xmlns="http://www.w3.org/2000/svg">
<path fill-rule="evenodd" clip-rule="evenodd" d="M5.95029 5.29805C5.27105 5.29805 4.72041 5.84868 4.72041 6.52793C4.72041 7.20717 5.27105 7.75781 5.95029 7.75781C6.62954 7.75781 7.18017 7.20717 7.18017 6.52793C7.18017 5.84868 6.62954 5.29805 5.95029 5.29805ZM2.92041 6.52793C2.92041 4.85457 4.27693 3.49805 5.95029 3.49805C7.28916 3.49805 8.4252 4.36646 8.82587 5.57075H13.1601C15.3543 5.57075 17.133 7.34947 17.133 9.54363C17.133 11.7378 15.3543 13.5165 13.1601 13.5165H12.0133V13.516H10.9205C9.72041 13.516 8.74758 14.4888 8.74758 15.6888C8.74758 16.8889 9.72041 17.8617 10.9205 17.8617H15.2603C15.571 16.5653 16.7376 15.6017 18.1292 15.6017C19.7585 15.6017 21.0793 16.9225 21.0793 18.5518C21.0793 20.181 19.7585 21.5018 18.1292 21.5018C16.8926 21.5018 15.8337 20.7409 15.3951 19.6617H10.9205C8.7263 19.6617 6.94758 17.883 6.94758 15.6888C6.94758 13.4947 8.7263 11.716 10.9205 11.716H12.0672V11.7165H13.1601C14.3601 11.7165 15.333 10.7437 15.333 9.54363C15.333 8.34358 14.3601 7.37075 13.1601 7.37075H8.86141C8.49631 8.63403 7.33118 9.55781 5.95029 9.55781C4.27693 9.55781 2.92041 8.20129 2.92041 6.52793Z" fill="#091521"/>
</svg>
