<svg width="24" height="24" viewBox="0 0 24 24" fill="none" xmlns="http://www.w3.org/2000/svg">
<path d="M3 5C3 3.89543 3.89543 3 5 3H19C20.1046 3 21 3.89543 21 5V19C21 20.1046 20.1046 21 19 21H5C3.89543 21 3 20.1046 3 19V5Z" fill="#091521"/>
<path fill-rule="evenodd" clip-rule="evenodd" d="M16.233 9.43538C16.73 9.43537 17.133 9.83831 17.133 10.3354L17.133 16.2329C17.1331 16.4716 17.0382 16.7005 16.8694 16.8693C16.7007 17.0381 16.4717 17.1329 16.233 17.1329L10.3354 17.1329C9.83839 17.1329 9.43544 16.73 9.43544 16.2329C9.43545 15.7359 9.83839 15.3329 10.3354 15.3329L14.0603 15.3329L7.0983 8.37097C6.74683 8.0195 6.74683 7.44965 7.0983 7.09818C7.44977 6.7467 8.01962 6.7467 8.37109 7.09818L15.333 14.0601L15.333 10.3354C15.333 9.83833 15.7359 9.43538 16.233 9.43538Z" fill="white"/>
</svg>
