<svg width="24" height="24" viewBox="0 0 24 24" fill="none" xmlns="http://www.w3.org/2000/svg">
<rect x="3" y="3" width="18" height="18" rx="2" fill="#091521"/>
<path fill-rule="evenodd" clip-rule="evenodd" d="M9.43538 7.7343C9.43537 7.23724 9.83831 6.8343 10.3354 6.83429L16.2329 6.83424C16.4716 6.83423 16.7005 6.92905 16.8693 7.09784C17.0381 7.26662 17.1329 7.49554 17.1329 7.73424L17.1329 13.6318C17.1329 14.1289 16.73 14.5318 16.2329 14.5318C15.7359 14.5318 15.3329 14.1289 15.3329 13.6318L15.3329 9.90703L8.37097 16.869C8.0195 17.2205 7.44965 17.2205 7.09818 16.869C6.7467 16.5175 6.7467 15.9477 7.09818 15.5962L14.0601 8.63426L10.3354 8.63429C9.83833 8.6343 9.43538 8.23136 9.43538 7.7343Z" fill="white"/>
</svg>
