<svg width="24" height="24" viewBox="0 0 24 24" fill="none" xmlns="http://www.w3.org/2000/svg">
<path d="M12.8751 6.23438C12.8751 5.73732 12.4722 5.33438 11.9751 5.33438C11.478 5.33438 11.0751 5.73732 11.0751 6.23438H12.8751ZM11.0751 6.23438V18.7651H12.8751V6.23438H11.0751Z" fill="#091521"/>
<path d="M8.4 8.19238C8.4 7.69533 7.99706 7.29238 7.5 7.29238C7.00294 7.29238 6.6 7.69533 6.6 8.19238H8.4ZM6.6 8.19238V18.7652H8.4V8.19238H6.6Z" fill="#091521"/>
<path d="M17.4 12.5C17.4 12.0029 16.9971 11.6 16.5 11.6C16.0029 11.6 15.6 12.0029 15.6 12.5H17.4ZM15.6 12.5V18.7654H17.4V12.5H15.6Z" fill="#091521"/>
</svg>
