<svg xmlns="http://www.w3.org/2000/svg" width="24" height="24"><path fill-rule="evenodd" d="m14.492 8.215 2.326-2.625a.4.4 0 0 1 .184-.118l1.813-.545a.2.2 0 0 1 .249.25l-.544 1.812a.4.4 0 0 1-.118.185L15.776 9.5l1.914 6.768a.774.774 0 0 1-.197.756.155.155 0 0 1-.24-.027l-3.516-5.69L9.93 14.68l.577 3.491a1 1 0 0 1-.28.87l-.136.136a.2.2 0 0 1-.32-.052l-1.632-3.273-3.273-1.632a.2.2 0 0 1-.052-.32l.136-.136a1.003 1.003 0 0 1 .87-.28l3.492.577 3.374-3.808-5.69-3.516a.155.155 0 0 1-.029-.24.773.773 0 0 1 .757-.197l6.769 1.914ZM9.919 10.66 6.05 8.27a1.955 1.955 0 0 1-.354-3.047 2.573 2.573 0 0 1 2.517-.654l5.682 1.606 1.576-1.779a2.2 2.2 0 0 1 1.014-.648l1.813-.545c1.526-.458 2.95.965 2.49 2.491l-.543 1.813a2.2 2.2 0 0 1-.649 1.014l-1.78 1.577 1.607 5.68a2.573 2.573 0 0 1-.654 2.517 1.955 1.955 0 0 1-3.047-.352l-2.391-3.87-1.463 1.295.415 2.51a2.8 2.8 0 0 1-.783 2.437l-.136.136a2 2 0 0 1-3.204-.522l-1.363-2.734-2.734-1.363a2 2 0 0 1-.522-3.204l.136-.136a2.8 2.8 0 0 1 2.436-.783l2.511.415L9.92 10.66Z" clip-rule="evenodd"/></svg>