<svg width="24" height="24" viewBox="0 0 24 24" xmlns="http://www.w3.org/2000/svg"><path fill-rule="evenodd" clip-rule="evenodd" d="M8.85928 7.11394C8.85928 6.61688 9.26221 6.21394 9.75927 6.21393L16.6415 6.21387C16.8802 6.21386 17.1092 6.30869 17.2779 6.47747C17.4467 6.64625 17.5416 6.87517 17.5415 7.11387L17.5415 13.9962C17.5415 14.4933 17.1386 14.8962 16.6415 14.8962C16.1445 14.8962 15.7415 14.4933 15.7415 13.9962L15.7415 9.28666L7.36061 17.6676C7.00914 18.0191 6.43929 18.0191 6.08782 17.6676C5.73635 17.3161 5.73635 16.7463 6.08782 16.3948L14.4687 8.01389L9.75929 8.01393C9.26223 8.01394 8.85928 7.611 8.85928 7.11394Z"/></svg>