<svg xmlns="http://www.w3.org/2000/svg" width="24" height="24"><path d="M4.297 16.265c-.367-.19-.831-.35-1.093-.03a.9.9 0 0 0 .134 1.273c.66.527 1.397.85 2.198.85.802 0 1.54-.323 2.2-.85.43-.346.784-.458 1.073-.458.29 0 .643.112 1.075.457.66.528 1.397.852 2.198.852.801 0 1.54-.324 2.199-.852.431-.345.784-.457 1.074-.457.29 0 .643.112 1.074.457.66.528 1.398.852 2.199.852.801 0 1.539-.324 2.198-.852a.9.9 0 0 0 .141-1.265l-.006-.008c-.262-.32-.727-.16-1.094.032-.4.209-.814.32-1.239.32-.652 0-1.278-.262-1.87-.737-.499-.398-.964-.572-1.403-.572-.439 0-.904.174-1.402.572-.593.475-1.219.737-1.87.737-.653 0-1.278-.262-1.871-.737-.498-.398-.964-.572-1.403-.572-.438 0-.904.174-1.402.572-.593.475-1.218.737-1.87.737a2.66 2.66 0 0 1-1.24-.32ZM13.29 8.58a.3.3 0 0 0-.3.3v1.49a.3.3 0 0 0 .3.3h1.49a.3.3 0 0 0 .3-.3V8.88a.3.3 0 0 0-.3-.3h-1.49ZM13.99 6.3a.3.3 0 0 1 .3-.3h1.49a.3.3 0 0 1 .3.3v1.49a.3.3 0 0 1-.3.3h-1.49a.3.3 0 0 1-.3-.3V6.3ZM15.87 8.58a.3.3 0 0 0-.3.3v1.49a.3.3 0 0 0 .3.3h1.49a.3.3 0 0 0 .3-.3V8.88a.3.3 0 0 0-.3-.3h-1.49Z"/><path fill-rule="evenodd" d="M10.897 7.917h.448a.9.9 0 0 1 .9.9v2.511h7.107a.9.9 0 0 1 .883 1.074l-1.217 3.202a.271.271 0 0 1-.234.225 1.668 1.668 0 0 1-.156.007c-.439 0-.904-.174-1.402-.572-.593-.475-1.219-.737-1.87-.737-.653 0-1.278.262-1.872.737-.498.398-.963.572-1.402.572-.439 0-.904-.174-1.402-.572-.593-.475-1.219-.737-1.87-.737-.653 0-1.278.262-1.871.737-.498.398-.964.572-1.402.572-.052 0-.104-.002-.156-.007a.271.271 0 0 1-.235-.225L3.93 12.402a.9.9 0 0 1 .805-1.07V8.817a.9.9 0 0 1 .9-.9h5.263Zm-.452 3.411v-1.61H6.534v1.61h3.91Z" clip-rule="evenodd"/></svg>