<svg xmlns="http://www.w3.org/2000/svg" width="24" height="25"><path fill-rule="evenodd" d="M8.032 3.41a.9.9 0 0 0-.9.9v.361H5.61a.9.9 0 0 0-.9.9v15.12a.9.9 0 0 0 .9.9h12.78a.9.9 0 0 0 .9-.9V5.57a.9.9 0 0 0-.9-.9h-1.527v-.36a.9.9 0 0 0-.9-.9h-7.93Zm8.83 3.061v.297a.9.9 0 0 1-.9.9h-7.93a.9.9 0 0 1-.9-.9v-.297H6.51v13.32h10.98V6.47h-.627Zm-7.93-.603V5.21h6.13v.658h-6.13Zm3.066 4.465a.9.9 0 0 1 .9.9v1.641h1.55a.9.9 0 1 1 0 1.8h-1.55v1.564a.9.9 0 0 1-1.8 0v-1.564H9.463a.9.9 0 0 1 0-1.8h1.635v-1.641a.9.9 0 0 1 .9-.9Z" clip-rule="evenodd"/></svg>