<svg xmlns="http://www.w3.org/2000/svg" width="24" height="25"><path fill-rule="evenodd" d="M7.135 4.31a.9.9 0 0 1 .9-.9h7.93a.9.9 0 0 1 .9.9v.361h1.525a.9.9 0 0 1 .9.9v15.12a.9.9 0 0 1-.9.9H5.61a.9.9 0 0 1-.9-.9V5.57a.9.9 0 0 1 .9-.9h1.525v-.36Zm9.73 2.458v-.297h.625v13.32H6.51V6.47h.625v.297a.9.9 0 0 0 .9.9h7.93a.9.9 0 0 0 .9-.9ZM8.935 5.21v.658h6.13V5.21h-6.13Zm6.788 7.142a.9.9 0 0 0-1.275-1.27l-3.442 3.455-1.453-1.458a.9.9 0 0 0-1.275 1.27l2.09 2.098a.9.9 0 0 0 1.276 0l4.079-4.095Z" clip-rule="evenodd"/></svg>