<svg width="24" height="24" viewBox="0 0 24 24" xmlns="http://www.w3.org/2000/svg">
<path fill-rule="evenodd" clip-rule="evenodd" d="M7 5.93333C7 5.01789 7.66865 4 8.8 4H15.2C16.3314 4 17 5.01789 17 5.93333V18.0667C17 18.9821 16.3314 20 15.2 20H8.8C7.66865 20 7 18.9821 7 18.0667V5.93333ZM9 6V18H15V6H9ZM3 17.5H5C5.55 17.5 6 17.05 6 16.5V7.5C6 6.95 5.55 6.5 5 6.5H3C2.45 6.5 2 6.95 2 7.5V16.5C2 17.05 2.45 17.5 3 17.5ZM18 16.5V7.5C18 6.95 18.45 6.5 19 6.5H21C21.55 6.5 22 6.95 22 7.5V16.5C22 17.05 21.55 17.5 21 17.5H19C18.45 17.5 18 17.05 18 16.5Z" />
</svg>
