<svg width="24" height="24" viewBox="0 0 24 24" xmlns="http://www.w3.org/2000/svg"><path fill-rule="evenodd" clip-rule="evenodd" d="M3.89998 12C3.89998 7.52647 7.52647 3.89998 12 3.89998C13.9125 3.89998 15.6702 4.5628 17.0559 5.67127L5.67127 17.0559C4.5628 15.6702 3.89998 13.9125 3.89998 12ZM6.94406 18.3287C8.32976 19.4372 10.0875 20.1 12 20.1C16.4735 20.1 20.1 16.4735 20.1 12C20.1 10.0875 19.4371 8.32976 18.3287 6.94406L6.94406 18.3287ZM12 2.09998C6.53236 2.09998 2.09998 6.53236 2.09998 12C2.09998 17.4676 6.53236 21.9 12 21.9C17.4676 21.9 21.9 17.4676 21.9 12C21.9 6.53236 17.4676 2.09998 12 2.09998Z"/></svg>