<svg xmlns="http://www.w3.org/2000/svg" width="24" height="25"><path fill-rule="evenodd" d="M12.109 4.411a8.2 8.2 0 1 0 0 16.399 8.2 8.2 0 0 0 0-16.399Zm-10 8.2c0-5.523 4.477-10 10-10 5.522 0 9.999 4.477 9.999 10 0 5.522-4.477 9.999-10 9.999-5.522 0-9.999-4.477-9.999-10Zm8.145-.49h.955v4.23h-.955a.9.9 0 0 0 0 1.8h3.709a.9.9 0 0 0 0-1.8h-.954v-4.992l-.003-.069a.9.9 0 0 0-.897-.97h-1.855a.9.9 0 0 0 0 1.8Zm1.656-2.847a1.112 1.112 0 1 0 0-2.224 1.112 1.112 0 0 0 0 2.224Z" clip-rule="evenodd"/></svg>