<svg width="24" height="24" viewBox="0 0 24 24" xmlns="http://www.w3.org/2000/svg"><path fill-rule="evenodd" clip-rule="evenodd" d="M18.6364 5.36358C18.2849 5.01211 17.7151 5.01211 17.3636 5.36358L14.8636 7.86358L11.2698 11.4574C10.4819 10.9165 9.52789 10.6 8.49998 10.6C5.79378 10.6 3.59998 12.7938 3.59998 15.5C3.59998 18.2062 5.79378 20.4 8.49998 20.4C11.2062 20.4 13.4 18.2062 13.4 15.5C13.4 14.4721 13.0835 13.5181 12.5426 12.7302L15.5 9.77277L16.3636 10.6364C16.7151 10.9878 17.2849 10.9878 17.6364 10.6364C17.9878 10.2849 17.9878 9.71505 17.6364 9.36358L16.7728 8.49998L18 7.27277L18.8636 8.13637C19.2151 8.48784 19.7849 8.48784 20.1364 8.13637C20.4878 7.7849 20.4878 7.21505 20.1364 6.86358L18.6364 5.36358ZM5.39998 15.5C5.39998 13.7879 6.78789 12.4 8.49998 12.4C10.2121 12.4 11.6 13.7879 11.6 15.5C11.6 17.2121 10.2121 18.6 8.49998 18.6C6.78789 18.6 5.39998 17.2121 5.39998 15.5Z"/></svg>