<svg width="24" height="24" viewBox="0 0 24 24" xmlns="http://www.w3.org/2000/svg"><g id="Icon"><path id="Vector" d="M10.9983 8.74841V12.4284C10.9983 12.7784 11.1883 13.1084 11.4883 13.2884L14.6083 15.1384C14.9683 15.3484 15.4283 15.2284 15.6383 14.8784C15.8483 14.5184 15.7383 14.0584 15.3783 13.8484L12.5083 12.1384V8.73841C12.4983 8.33841 12.1583 7.99841 11.7483 7.99841C11.3383 7.99841 10.9983 8.33841 10.9983 8.74841ZM20.9983 9.49841V4.20841C20.9983 3.75841 20.4583 3.53841 20.1483 3.85841L18.3683 5.63841C16.5583 3.82841 13.9783 2.78841 11.1583 3.03841C6.9683 3.41841 3.5183 6.78841 3.0583 10.9784C2.4583 16.3984 6.6883 20.9984 11.9983 20.9984C16.5883 20.9984 20.3783 17.5584 20.9283 13.1184C20.9983 12.5184 20.5283 11.9984 19.9283 11.9984C19.4283 11.9984 19.0083 12.3684 18.9483 12.8584C18.5183 16.3484 15.5083 19.0484 11.8983 18.9984C8.1883 18.9484 5.0583 15.8184 4.9983 12.0984C4.9383 8.19841 8.1083 4.99841 11.9983 4.99841C13.9283 4.99841 15.6783 5.78841 16.9483 7.04841L14.8583 9.13841C14.5383 9.45841 14.7583 9.99841 15.2083 9.99841H20.4983C20.7783 9.99841 20.9983 9.77841 20.9983 9.49841Z"/></g></svg>