<svg xmlns="http://www.w3.org/2000/svg" width="24" height="24"><path fill-rule="evenodd" d="M12.109 3.911a8.2 8.2 0 0 0-6.673 12.966 9.532 9.532 0 0 1 6.672-2.713 9.532 9.532 0 0 1 6.673 2.713 8.2 8.2 0 0 0-6.672-12.966Zm0 16.399a8.169 8.169 0 0 1-5.47-2.091 7.736 7.736 0 0 1 5.47-2.255c2.133 0 4.065.86 5.469 2.255a8.169 8.169 0 0 1-5.47 2.09Zm-10-8.2c0-5.522 4.477-9.999 10-9.999 5.522 0 9.999 4.477 9.999 10 0 5.522-4.477 9.999-10 9.999-5.522 0-9.999-4.477-9.999-10Zm8.184-2.037a1.816 1.816 0 1 1 3.632 0 1.816 1.816 0 0 1-3.632 0Zm1.816-3.416a3.416 3.416 0 1 0 0 6.832 3.416 3.416 0 0 0 0-6.832Z" clip-rule="evenodd"/></svg>