<svg xmlns="http://www.w3.org/2000/svg" width="24" height="25"><path fill-rule="evenodd" d="M12.9 3.401a.9.9 0 0 0-1.8 0V7.1L8.788 4.788a.9.9 0 0 0-1.273 1.273L11.1 9.646V11.6H9.147L5.562 8.015a.9.9 0 0 0-1.273 1.272L6.602 11.6H2.9a.9.9 0 1 0 0 1.8h3.7l-2.312 2.312a.9.9 0 0 0 1.273 1.273L9.146 13.4H11.1v1.954l-3.585 3.584a.9.9 0 0 0 1.273 1.273L11.1 17.9v3.7a.9.9 0 1 0 1.8 0v-3.7l2.313 2.312a.9.9 0 0 0 1.273-1.272L12.9 15.353V13.4h1.954l3.585 3.585a.9.9 0 0 0 1.273-1.273L17.4 13.4h3.7a.9.9 0 0 0 0-1.8h-3.701l2.313-2.313a.9.9 0 1 0-1.273-1.272L14.853 11.6H12.9V9.646l3.586-3.585a.9.9 0 1 0-1.273-1.273L12.9 7.1V3.4Z" clip-rule="evenodd"/></svg>