<svg xmlns="http://www.w3.org/2000/svg" width="24" height="25"><path fill-rule="evenodd" d="M8.57 4.54a.9.9 0 0 0 0 1.8 6.16 6.16 0 0 1 0 12.32.9.9 0 0 0 0 1.8 7.962 7.962 0 0 0 7.91-7.06h2.347l-1.213 1.213a.9.9 0 1 0 1.273 1.273l2.75-2.75a.9.9 0 0 0 0-1.273l-2.75-2.75a.9.9 0 0 0-1.273 1.273l1.213 1.214h-2.346a7.962 7.962 0 0 0-7.91-7.06ZM5.073 9.536c1.333 0 2.461.878 2.838 2.087h3.163a.9.9 0 0 1 0 1.8H7.902a2.974 2.974 0 1 1-2.83-3.887Zm0 1.8a1.173 1.173 0 1 0 0 2.346 1.173 1.173 0 0 0 0-2.346Z" clip-rule="evenodd"/></svg>