<svg xmlns="http://www.w3.org/2000/svg" width="25" height="25"><path fill-rule="evenodd" d="M3.737 5.907a.81.81 0 0 1 .573-.237h10.965a.81.81 0 0 1 .81.81v2.453h1.124a.81.81 0 0 1 .57.235l3.48 3.447a.81.81 0 0 1 .24.576l.001 2.312a.81.81 0 0 1-.81.81h-.122a2.61 2.61 0 1 1-5.158 0h-4.954a2.61 2.61 0 1 1-5.158 0H4.31a.81.81 0 0 1-.81-.81V6.48a.81.81 0 0 1 .237-.573Zm16.143 8.786h-.245a2.6 2.6 0 0 0-1.646-.584 2.6 2.6 0 0 0-1.645.584h-.259v-4.14h.79l3.005 2.976v1.164Zm-5.415 0H9.523a2.6 2.6 0 0 0-1.646-.584 2.6 2.6 0 0 0-1.645.584H5.12v-.615l6.77-6.77.017-.018h2.558v7.403ZM6.887 16.72a.99.99 0 1 1 1.98 0 .99.99 0 0 1-1.98 0Zm10.112 0a.99.99 0 1 1 1.98 0 .99.99 0 0 1-1.98 0Z" clip-rule="evenodd"/></svg>