<svg xmlns="http://www.w3.org/2000/svg" width="25" height="25"><path d="M11.687 18.284c.41.41 1.074.41 1.484 0l1.914-1.914c.137-.137.11-.366-.045-.483a4.035 4.035 0 1 1 5.65-5.65c.117.155.346.182.483.045l.023-.023c.414-.414.41-1.092-.041-1.465C16.13 4.64 8.8 4.69 3.833 8.946c-.44.377-.438 1.046-.028 1.456l7.882 7.882Z"/><path d="M16.549 15.903c0 .06.048.108.107.108h1.162c.06 0 .108-.049.108-.108.003-.292.037-.538.103-.736.07-.201.174-.377.315-.525.143-.15.326-.293.55-.43.253-.152.473-.324.657-.517a2.05 2.05 0 0 0 .426-.662c.102-.248.153-.53.153-.844 0-.466-.113-.868-.339-1.207a2.173 2.173 0 0 0-.939-.79c-.4-.185-.863-.277-1.39-.277-.482 0-.923.088-1.323.264a2.25 2.25 0 0 0-.96.794 2.06 2.06 0 0 0-.264.561c-.123.401.23.754.65.754h.03c.38 0 .655-.326.867-.64.116-.171.26-.298.434-.381.177-.086.363-.128.558-.128.213 0 .404.044.575.132.174.088.312.212.414.372.102.16.153.349.153.567 0 .193-.039.368-.116.525a1.493 1.493 0 0 1-.318.422 2.89 2.89 0 0 1-.451.343 3.047 3.047 0 0 0-.625.5c-.17.18-.303.417-.397.712-.09.295-.137.692-.14 1.191ZM16.627 18.326c.18.177.393.265.641.265a.87.87 0 0 0 .451-.12.95.95 0 0 0 .331-.33.854.854 0 0 0 .128-.46.855.855 0 0 0-.273-.637.877.877 0 0 0-.637-.264.882.882 0 0 0-.64.264.861.861 0 0 0-.27.637c0 .254.09.47.27.645Z"/></svg>