<svg width="19" height="20" viewBox="0 0 19 20" xmlns="http://www.w3.org/2000/svg"><path d="M14.2747 17.9297L15.4853 17.0928L18.6403 11.6282L18.751 10.1564L15.3745 1.84461L13.5212 0.774609L4.71639 2.06507L3.51945 2.89822L0.354453 8.38016L0.240049 9.83832L3.52625 18.0865L5.37454 19.1651L14.2747 17.9297ZM4.83476 2.78004L13.6346 1.49824C13.7265 1.48235 13.8204 1.48193 13.9125 1.497L10.6525 7.14349C10.5199 7.11313 7.98917 7.47645 7.36116 7.5642L7.63711 8.26623L10.2921 7.84765L10.8637 8.17765L11.8547 10.7012L12.6056 10.5805C12.4252 10.153 11.3909 7.60447 11.2897 7.49983L14.5447 1.862C14.6078 1.94036 14.6585 2.02804 14.6948 2.1219L18.0713 10.4337L18.0823 10.4747L11.3883 11.529L11.2257 11.5506L8.68868 11.9449L8.1171 11.6149L7.30558 9.46046L7.2663 9.3685L6.37889 6.98554L4.79378 2.79102L4.83476 2.78004ZM4.20096 17.8178L0.914761 9.56968C0.895494 9.51145 0.879607 9.45216 0.867177 9.3921L5.47719 8.64732L5.20623 7.93663L1.05665 8.62392L4.15665 3.25456C4.1624 3.24161 4.17256 3.23111 4.18531 3.22492C4.18531 3.22492 4.90997 5.10977 5.69221 7.15489C6.05637 8.10415 6.43652 9.08572 6.77505 9.93936C7.27902 11.2465 7.67282 12.2244 7.70612 12.2667L4.35612 18.0691C4.28955 17.9955 4.23697 17.9103 4.20096 17.8178ZM8.32466 12.6354C8.38662 12.648 9.73327 12.4556 11.4151 12.2026C12.3509 12.0616 13.3997 11.9051 14.3716 11.7618C16.3426 11.4679 18.0331 11.2199 18.0331 11.2199C18.0267 11.2357 18.0212 11.2518 18.0167 11.2682L14.9217 16.6289L13.3829 12.6343L12.6456 12.7513L14.3475 17.1634C14.2923 17.1842 14.2359 17.2018 14.1786 17.216L5.27849 18.4515C5.18341 18.4658 5.08665 18.4645 4.99198 18.4477L8.34198 12.6454L8.32466 12.6354Z"/></svg>