<svg width="24" height="22" viewBox="0 0 24 22" xmlns="http://www.w3.org/2000/svg"><path fill-rule="evenodd" clip-rule="evenodd" d="M13.9369 1.11852C13.0761 -0.372841 10.9239 -0.372842 10.0631 1.11852L0.302975 18.0275C-0.557866 19.5188 0.518185 21.383 2.23987 21.383H21.7601C23.4818 21.383 24.5579 19.5188 23.697 18.0275L13.9369 1.11852ZM12.002 6.78027C12.5542 6.78027 13.002 7.22799 13.002 7.78027V13.1729C13.002 13.7252 12.5542 14.1729 12.002 14.1729C11.4497 14.1729 11.002 13.7252 11.002 13.1729V7.78027C11.002 7.22799 11.4497 6.78027 12.002 6.78027ZM12.002 17.6729C12.5542 17.6729 13.002 17.2251 13.002 16.6729C13.002 16.1206 12.5542 15.6729 12.002 15.6729C11.4497 15.6729 11.002 16.1206 11.002 16.6729C11.002 17.2251 11.4497 17.6729 12.002 17.6729Z"/></svg>