<svg width="32" height="29" viewBox="0 0 32 29" xmlns="http://www.w3.org/2000/svg"><path fill-rule="evenodd" clip-rule="evenodd" d="M18.5825 1.49137C17.4347 -0.497121 14.5653 -0.497123 13.4175 1.49137L0.403967 24.0366C-0.743822 26.0251 0.690913 28.5107 2.98649 28.5107H29.0135C31.3091 28.5107 32.7438 26.0251 31.596 24.0366L18.5825 1.49137ZM16 9.51273C16.4971 9.51273 16.9 9.91568 16.9 10.4127V18.4128C16.9 18.9099 16.4971 19.3129 16 19.3129C15.5029 19.3129 15.1 18.9099 15.1 18.4128V10.4127C15.1 9.91568 15.5029 9.51273 16 9.51273ZM17.2499 22.697C17.2499 23.3873 16.6903 23.947 15.9999 23.947C15.3096 23.947 14.7499 23.3873 14.7499 22.697C14.7499 22.0066 15.3096 21.447 15.9999 21.447C16.6903 21.447 17.2499 22.0066 17.2499 22.697Z"/></svg>