<svg width="24" height="25" viewBox="0 0 24 25" xmlns="http://www.w3.org/2000/svg"><path fill-rule="evenodd" clip-rule="evenodd" d="M12 24.5C18.6274 24.5 24 19.1274 24 12.5C24 5.87258 18.6274 0.5 12 0.5C5.37258 0.5 0 5.87258 0 12.5C0 19.1274 5.37258 24.5 12 24.5ZM12.7876 8.03805C12.7876 8.47287 12.4351 8.82536 12.0003 8.82536C11.5654 8.82536 11.2129 8.47287 11.2129 8.03805C11.2129 7.60322 11.5654 7.25073 12.0003 7.25073C12.4351 7.25073 12.7876 7.60322 12.7876 8.03805ZM10.1606 10.4174C9.7878 10.4174 9.4856 10.7197 9.4856 11.0924C9.4856 11.4652 9.7878 11.7674 10.1606 11.7674H11.3251V16.3988H10.1606C9.7878 16.3988 9.4856 16.701 9.4856 17.0738C9.4856 17.4465 9.7878 17.7488 10.1606 17.7488H13.8395C14.2123 17.7488 14.5145 17.4465 14.5145 17.0738C14.5145 16.701 14.2123 16.3988 13.8395 16.3988H12.6751V11.2291C12.6751 11.206 12.6739 11.1831 12.6717 11.1606C12.6739 11.1382 12.6751 11.1154 12.6751 11.0924C12.6751 10.7197 12.3728 10.4174 12.0001 10.4174H10.1606Z"/></svg>