<svg xmlns="http://www.w3.org/2000/svg" viewBox="0 0 24 24"><path fill-rule="evenodd" d="M8.4 4.588a.9.9 0 0 1 .9.9v.522h5.4v-.522a.9.9 0 0 1 1.8 0v.522h2.6a1.9 1.9 0 0 1 1.9 1.9v10.602a1.9 1.9 0 0 1-1.9 1.9H4.9a1.9 1.9 0 0 1-1.9-1.9V7.91a1.9 1.9 0 0 1 1.9-1.9h2.6v-.522a.9.9 0 0 1 .9-.9Zm6.3 3.222v.198a.9.9 0 0 0 1.8 0V7.81h2.6a.1.1 0 0 1 .1.1v1.471H4.8v-1.47a.1.1 0 0 1 .1-.1h2.6v.197a.9.9 0 0 0 1.8 0V7.81h5.4Zm-9.9 3.371v7.33a.1.1 0 0 0 .1.1h14.202a.1.1 0 0 0 .1-.1v-7.33H4.799Zm2.926 5.42a1.125 1.125 0 1 1-2.25 0 1.125 1.125 0 0 1 2.25 0Zm2.475 1.125a1.125 1.125 0 1 0 0-2.25 1.125 1.125 0 0 0 0 2.25Zm4.726-1.125a1.125 1.125 0 1 1-2.25 0 1.125 1.125 0 0 1 2.25 0ZM13.8 14.125a1.125 1.125 0 1 0 0-2.25 1.125 1.125 0 0 0 0 2.25Zm4.725 2.476a1.125 1.125 0 1 1-2.25 0 1.125 1.125 0 0 1 2.25 0ZM17.4 14.125a1.125 1.125 0 1 0 0-2.25 1.125 1.125 0 0 0 0 2.25Z" clip-rule="evenodd"/></svg>