<svg xmlns="http://www.w3.org/2000/svg" viewBox="0 0 24 24"><path fill-rule="evenodd" d="M3.999 5.899c0-1.05.85-1.9 1.9-1.9h5.1c1.05 0 1.9.85 1.9 1.9v1.51L13 7.407h5.101c1.05 0 1.9.85 1.9 1.9V18.1a1.9 1.9 0 0 1-1.9 1.9H5.899a1.9 1.9 0 0 1-1.9-1.9V5.9Zm1.9-.1a.1.1 0 0 0-.1.1v1.61h5.3v-1.61a.1.1 0 0 0-.1-.1H5.9Zm5.2 3.51H5.8v1.66h5.3v-1.66Zm-5.3 5.116v-1.657h5.3v1.657H5.8Zm0 1.8V18.1a.1.1 0 0 0 .1.1h5.2v-1.976H5.8ZM18.1 9.207a.1.1 0 0 1 .1.1V18.1a.1.1 0 0 1-.1.1h-5.2V9.307a.1.1 0 0 1 .1-.1h5.101Zm-.907 2.661a.9.9 0 0 1-.9.9h-1.488a.9.9 0 0 1 0-1.8h1.488a.9.9 0 0 1 .9.9Zm-.9 4.357a.9.9 0 0 0 0-1.8h-1.488a.9.9 0 0 0 0 1.8h1.488Z" clip-rule="evenodd"/></svg>