<svg xmlns="http://www.w3.org/2000/svg" viewBox="0 0 24 24"><path fill-rule="evenodd" d="M3.899 5.17a.9.9 0 0 0-.9.9v8.89a.9.9 0 0 0 .9.9h.864a2.677 2.677 0 0 0 2.664 2.97 2.677 2.677 0 0 0 2.665-2.97h4.673a2.677 2.677 0 0 0 2.664 2.97 2.677 2.677 0 0 0 2.665-2.97h.007a.9.9 0 0 0 .9-.9v-2.278a.9.9 0 0 0-.268-.64L17.29 8.644a.9.9 0 0 0-.632-.26h-1.013V6.07a.9.9 0 0 0-.9-.9H3.899Zm15.194 8.89h.108v-1.002l-2.912-2.873h-.644v3.875h.12a2.675 2.675 0 0 1 1.665-.577 2.67 2.67 0 0 1 1.663.577Zm-10.002 0h4.754V6.97H4.799v7.09h.965a2.675 2.675 0 0 1 1.664-.577 2.67 2.67 0 0 1 1.663.577Zm-1.663 1.223a.877.877 0 0 0-.881.874c0 .479.391.873.88.873.49 0 .881-.394.881-.873a.877.877 0 0 0-.88-.874Zm10.002 0a.877.877 0 0 0-.881.874c0 .479.39.873.88.873s.881-.394.881-.873a.877.877 0 0 0-.88-.874Z" clip-rule="evenodd"/></svg>