<?xml version="1.0" encoding="UTF-8"?><svg id="Manifest_UI-Black" xmlns="http://www.w3.org/2000/svg" viewBox="0 0 181.94 181.94"><g><path d="M139.59,181.94l-34.71-59.73c-1.68-2.89-1.32-6.18,.35-8.58,1.41-2.02,3.74-3.42,6.55-3.42h0l41.68,71.73h-13.88Z"/><polygon points="84.03 134.1 111.83 181.94 125.71 181.94 90.97 122.16 84.03 134.1"/><path d="M42.35,181.94l41.68-71.73h-5.82c-2.22,0-4.37,.53-6.29,1.49-2.39,1.2-4.42,3.08-5.81,5.47L28.47,181.94h13.88Z"/><path d="M70.11,181.94l41.68-71.73h-5.82c-2.41,0-4.72,.62-6.76,1.74-2.19,1.21-4.05,2.99-5.35,5.23l-37.63,64.76h13.88Z"/></g><g><path d="M181.94,42.35l-59.73,34.71c-2.66,1.55-5.66,1.36-8,.02s-4-3.84-4-6.92h0S181.94,28.48,181.94,28.48v13.88Z"/><polygon points="134.1 97.91 181.94 70.11 181.94 56.23 122.16 90.97 134.1 97.91"/><path d="M181.94,139.59l-71.73-41.68v5.82c0,2.41,.62,4.74,1.75,6.78,1.21,2.18,2.99,4.03,5.22,5.33l64.76,37.63v-13.88Z"/><path d="M181.94,111.83l-71.73-41.68v5.82c0,2.68,.77,5.25,2.15,7.45,1.19,1.89,2.83,3.5,4.82,4.66l64.76,37.63v-13.88Z"/></g><g><path d="M42.35,0l34.71,59.73c1.58,2.72,1.35,5.8-.07,8.15s-3.82,3.85-6.83,3.85h0L28.47,0h13.88Z"/><polygon points="97.91 47.84 70.11 0 56.23 0 90.97 59.78 97.91 47.84"/><path d="M139.59,0l-41.68,71.73h5.82c2.54,0,4.98-.69,7.1-1.93s3.77-2.92,5-5.03L153.47,0h-13.88Z"/><path d="M111.83,0l-41.68,71.73h5.82c2.84,0,5.55-.86,7.83-2.39,1.73-1.16,3.2-2.71,4.28-4.57L125.71,0h-13.88Z"/></g><g><path d="M0,139.59l59.73-34.71c2.8-1.62,5.96-1.34,8.34,.19,2.15,1.38,3.66,3.79,3.66,6.71h0S0,153.47,0,153.47v-13.88Z"/><polygon points="47.84 84.04 0 111.84 0 125.71 59.78 90.97 47.84 84.04"/><path d="M0,42.36l71.73,41.68v-5.82c0-2.49-.66-4.89-1.87-6.98s-2.94-3.87-5.1-5.12L0,28.48v13.88Z"/><path d="M0,70.11l71.73,41.68v-5.82c0-2.64-.74-5.17-2.08-7.34-1.19-1.94-2.86-3.59-4.89-4.77L0,56.24v13.88Z"/></g></svg>