<svg width="1002" height="775" viewBox="0 0 1002 775" fill="none" xmlns="http://www.w3.org/2000/svg">
<path d="M838.965 312.604H690.387M771.072 748.568L591.038 748.568M438.654 15L267.944 14.9999M963 174.293L963 3.58301M115.5 244L39.9991 244M89.0001 673.501L89 598M812.57 446.801H955.766L963.144 440.121L963.145 206.886M248 227.5L248 42.0002M647.733 55.9258L851.544 55.9259L858.224 62.6059L858.224 292.66M299.475 445.133L95.665 445.133L88.9849 451.813L88.9855 572.5M444.999 71.0001L27.68 71L21 77.6801L21.0005 219M790.493 495L994.304 495L1000.98 501.68L1000.98 623.08M1000.98 623.08L1000.98 579.734M1000.98 623.08V637.655M812.176 748.568H994.304L1000.98 741.888L1000.98 637.655M1000.98 637.655L1000.98 663.834" stroke="#091521" stroke-width="0.5"/>
<path d="M982.65 202.86L984.167 199.658V184.467L982.626 181.265L965.581 168H960.429L943.625 181.289L942.133 184.467V199.706L943.649 202.884L960.429 216.125L965.581 216.149L982.65 202.86ZM944.733 182.637L961.537 169.372C961.705 169.228 961.922 169.107 962.115 169.035V184.732C961.802 184.828 956.963 188.632 955.759 189.571L957.179 190.702L962.211 186.634H963.8L968.904 190.702L970.324 189.547C969.433 188.872 964.209 184.804 963.872 184.708V169.035C964.089 169.132 964.305 169.228 964.498 169.396L981.543 182.661C981.567 182.685 981.591 182.709 981.615 182.734L968.928 192.989L968.615 193.23L963.8 197.106H962.211L957.926 193.591L957.733 193.447L953.014 189.547L944.661 182.709C944.685 182.685 944.709 182.661 944.733 182.637ZM961.513 214.752L944.733 201.512C944.612 201.415 944.516 201.295 944.42 201.199L953.135 194.097L951.714 192.941L943.89 199.369V184.443C943.89 184.419 943.89 184.371 943.914 184.346C943.914 184.346 947.694 187.404 951.787 190.726C953.688 192.267 955.663 193.856 957.396 195.228C960.02 197.347 962.018 198.911 962.139 198.96V215.089C961.898 215.017 961.705 214.897 961.513 214.752ZM963.872 198.984C964.016 198.936 966.592 196.913 969.794 194.361C971.576 192.941 973.574 191.352 975.428 189.884C979.183 186.898 982.409 184.346 982.409 184.346C982.409 184.395 982.433 184.443 982.433 184.467V199.369L974.417 192.893L973.02 194.024L981.88 201.174C981.783 201.295 981.687 201.391 981.591 201.487L964.522 214.777C964.329 214.921 964.137 215.041 963.92 215.114V198.984H963.872Z" fill="#0072EC"/>
<path d="M267.517 34.8597L269.034 31.6578V16.4669L267.493 13.265L250.448 0H245.297L228.493 13.2891L227 16.4669V31.706L228.517 34.8838L245.297 48.1247L250.448 48.1488L267.517 34.8597ZM229.6 14.6372L246.404 1.37224C246.572 1.22779 246.789 1.10742 246.982 1.0352V16.7317C246.669 16.828 241.83 20.6317 240.626 21.5706L242.046 22.7021L247.078 18.6336H248.667L253.771 22.7021L255.191 21.5466C254.3 20.8725 249.076 16.8039 248.739 16.7076V1.0352C248.956 1.1315 249.173 1.22779 249.365 1.39631L266.41 14.6613C266.434 14.6854 266.458 14.7094 266.482 14.7335L253.795 24.9892L253.482 25.2299L248.667 29.1059H247.078L242.793 25.5911L242.6 25.4466L237.882 21.5466L229.528 14.7094C229.552 14.6854 229.576 14.6613 229.6 14.6372ZM246.38 46.7524L229.6 33.5115C229.48 33.4152 229.383 33.2949 229.287 33.1986L238.002 26.0966L236.582 24.9411L228.757 31.3689V16.4428C228.757 16.4187 228.757 16.3706 228.782 16.3465C228.782 16.3465 232.561 19.4039 236.654 22.7262C238.556 24.267 240.53 25.8559 242.263 27.2281C244.887 29.3467 246.885 30.9115 247.006 30.9597V47.0895C246.765 47.0173 246.572 46.8969 246.38 46.7524ZM248.739 30.9837C248.884 30.9356 251.46 28.9133 254.661 26.3614C256.443 24.9411 258.441 23.3521 260.295 21.8836C264.05 18.8984 267.276 16.3465 267.276 16.3465C267.276 16.3947 267.301 16.4428 267.301 16.4669V31.3689L259.284 24.8929L257.887 26.0244L266.747 33.1745C266.651 33.2949 266.554 33.3912 266.458 33.4875L249.389 46.7765C249.197 46.921 249.004 47.0413 248.787 47.1136V30.9837H248.739Z" fill="#0072EC"/>
<path d="M40.5172 245.86L42.0339 242.658V227.467L40.4931 224.265L23.4484 211H18.2965L1.49261 224.289L0 227.467V242.706L1.51669 245.884L18.2965 259.125L23.4484 259.149L40.5172 245.86ZM2.60003 225.637L19.4039 212.372C19.5725 212.228 19.7891 212.107 19.9817 212.035V227.732C19.6688 227.828 14.8298 231.632 13.6261 232.571L15.0465 233.702L20.078 229.634H21.6669L26.7707 233.702L28.1911 232.547C27.3003 231.872 22.0762 227.804 21.7392 227.708V212.035C21.9558 212.132 22.1725 212.228 22.3651 212.396L39.4098 225.661C39.4338 225.685 39.4579 225.709 39.482 225.734L26.7948 235.989L26.4818 236.23L21.6669 240.106H20.078L15.7928 236.591L15.6002 236.447L10.8816 232.547L2.52781 225.709C2.55188 225.685 2.57596 225.661 2.60003 225.637ZM19.3799 257.752L2.60003 244.512C2.47966 244.415 2.38336 244.295 2.28707 244.199L11.002 237.097L9.5816 235.941L1.75743 242.369V227.443C1.75743 227.419 1.75743 227.371 1.7815 227.346C1.7815 227.346 5.56118 230.404 9.65382 233.726C11.5557 235.267 13.5298 236.856 15.2632 238.228C17.8873 240.347 19.8854 241.911 20.0058 241.96V258.089C19.7651 258.017 19.5725 257.897 19.3799 257.752ZM21.7392 241.984C21.8836 241.936 24.4596 239.913 27.6615 237.361C29.443 235.941 31.4411 234.352 33.2949 232.884C37.0505 229.898 40.2764 227.346 40.2764 227.346C40.2764 227.395 40.3005 227.443 40.3005 227.467V242.369L32.2837 235.893L30.8874 237.024L39.7468 244.174C39.6505 244.295 39.5542 244.391 39.4579 244.487L22.3892 257.777C22.1966 257.921 22.004 258.041 21.7873 258.114V241.984H21.7392Z" fill="#0072EC"/>
<path d="M108.517 598.86L110.034 595.658V580.467L108.493 577.265L91.4484 564H86.2965L69.4926 577.289L68 580.467V595.706L69.5167 598.884L86.2965 612.125L91.4484 612.149L108.517 598.86ZM70.6 578.637L87.4039 565.372C87.5725 565.228 87.7891 565.107 87.9817 565.035V580.732C87.6688 580.828 82.8298 584.632 81.6261 585.571L83.0465 586.702L88.078 582.634H89.6669L94.7707 586.702L96.1911 585.547C95.3003 584.872 90.0762 580.804 89.7392 580.708V565.035C89.9558 565.132 90.1725 565.228 90.3651 565.396L107.41 578.661C107.434 578.685 107.458 578.709 107.482 578.734L94.7948 588.989L94.4818 589.23L89.6669 593.106H88.078L83.7928 589.591L83.6002 589.447L78.8816 585.547L70.5278 578.709C70.5519 578.685 70.576 578.661 70.6 578.637ZM87.3799 610.752L70.6 597.512C70.4797 597.415 70.3834 597.295 70.2871 597.199L79.002 590.097L77.5816 588.941L69.7574 595.369V580.443C69.7574 580.419 69.7574 580.371 69.7815 580.346C69.7815 580.346 73.5612 583.404 77.6538 586.726C79.5557 588.267 81.5298 589.856 83.2632 591.228C85.8873 593.347 87.8854 594.911 88.0058 594.96V611.089C87.7651 611.017 87.5725 610.897 87.3799 610.752ZM89.7392 594.984C89.8836 594.936 92.4596 592.913 95.6615 590.361C97.443 588.941 99.4411 587.352 101.295 585.884C105.05 582.898 108.276 580.346 108.276 580.346C108.276 580.395 108.301 580.443 108.301 580.467V595.369L100.284 588.893L98.8874 590.024L107.747 597.174C107.65 597.295 107.554 597.391 107.458 597.487L90.3892 610.776C90.1966 610.921 90.004 611.041 89.7873 611.114V594.984H89.7392Z" fill="#0072EC"/>
<path d="M877.724 314.785L879.241 311.584V296.393L877.7 293.191L860.655 279.926H855.503L838.699 293.215L837.207 296.393V311.632L838.723 314.81L855.503 328.05L860.655 328.075L877.724 314.785ZM839.807 294.563L856.611 281.298C856.779 281.154 856.996 281.033 857.188 280.961V296.657C856.875 296.754 852.036 300.558 850.833 301.496L852.253 302.628L857.285 298.559H858.874L863.977 302.628L865.398 301.472C864.507 300.798 859.283 296.73 858.946 296.633V280.961C859.162 281.057 859.379 281.154 859.572 281.322L876.616 294.587C876.64 294.611 876.665 294.635 876.689 294.659L864.001 304.915L863.688 305.156L858.874 309.032H857.285L852.999 305.517L852.807 305.372L848.088 301.472L839.734 294.635C839.759 294.611 839.783 294.587 839.807 294.563ZM856.587 326.678L839.807 313.437C839.686 313.341 839.59 313.221 839.494 313.124L848.209 306.022L846.788 304.867L838.964 311.295V296.369C838.964 296.345 838.964 296.296 838.988 296.272C838.988 296.272 842.768 299.33 846.86 302.652C848.762 304.193 850.737 305.782 852.47 307.154C855.094 309.272 857.092 310.837 857.212 310.885V327.015C856.972 326.943 856.779 326.823 856.587 326.678ZM858.946 310.91C859.09 310.861 861.666 308.839 864.868 306.287C866.65 304.867 868.648 303.278 870.502 301.809C874.257 298.824 877.483 296.272 877.483 296.272C877.483 296.32 877.507 296.369 877.507 296.393V311.295L869.49 304.819L868.094 305.95L876.953 313.1C876.857 313.221 876.761 313.317 876.665 313.413L859.596 326.702C859.403 326.847 859.211 326.967 858.994 327.039V310.91H858.946Z" fill="#0072EC"/>
<path d="M811.589 760.86L813.106 757.658V742.467L811.565 739.265L794.521 726H789.369L772.565 739.289L771.072 742.467V757.706L772.589 760.884L789.369 774.125L794.521 774.149L811.589 760.86ZM773.672 740.637L790.476 727.372C790.645 727.228 790.861 727.107 791.054 727.035V742.732C790.741 742.828 785.902 746.632 784.698 747.571L786.119 748.702L791.15 744.634H792.739L797.843 748.702L799.263 747.547C798.373 746.872 793.148 742.804 792.811 742.708V727.035C793.028 727.132 793.245 727.228 793.437 727.396L810.482 740.661C810.506 740.685 810.53 740.709 810.554 740.734L797.867 750.989L797.554 751.23L792.739 755.106H791.15L786.865 751.591L786.672 751.447L781.954 747.547L773.6 740.709C773.624 740.685 773.648 740.661 773.672 740.637ZM790.452 772.752L773.672 759.512C773.552 759.415 773.456 759.295 773.359 759.199L782.074 752.097L780.654 750.941L772.83 757.369V742.443C772.83 742.419 772.83 742.371 772.854 742.346C772.854 742.346 776.633 745.404 780.726 748.726C782.628 750.267 784.602 751.856 786.335 753.228C788.96 755.347 790.958 756.911 791.078 756.96V773.089C790.837 773.017 790.645 772.897 790.452 772.752ZM792.811 756.984C792.956 756.936 795.532 754.913 798.734 752.361C800.515 750.941 802.513 749.352 804.367 747.884C808.123 744.898 811.349 742.346 811.349 742.346C811.349 742.395 811.373 742.443 811.373 742.467V757.369L803.356 750.893L801.96 752.024L810.819 759.174C810.723 759.295 810.626 759.391 810.53 759.487L793.461 772.776C793.269 772.921 793.076 773.041 792.86 773.114V756.984H792.811Z" fill="#0072EC"/>
</svg>
