<svg width="1102" height="729" viewBox="0 0 1102 729" fill="none" xmlns="http://www.w3.org/2000/svg">
<path d="M1061.06 15.0727L841.659 15.0727" stroke="#091521" stroke-width="0.5"/>
<path d="M995.305 531.276L846.727 531.276" stroke="#091521" stroke-width="0.5"/>
<path d="M317.82 239.43L168.53 239.43" stroke="#091521" stroke-width="0.5"/>
<path d="M258.557 63.3245L98.3908 63.3244" stroke="#091521" stroke-width="0.5"/>
<path d="M259.986 712.314L40.6404 712.314" stroke="#091521" stroke-width="0.5"/>
<path d="M842.288 654.604L1073.51 654.604L1080.89 647.924L1080.89 48.0364" stroke="#091521" stroke-width="0.5"/>
<path d="M302.227 92.1528L29.5411 92.1529L20.6036 98.8329L20.6036 691.499" stroke="#091521" stroke-width="0.5"/>
<path d="M804.931 262.706L1008.74 262.706L1015.42 269.386L1015.42 499.44" stroke="#091521" stroke-width="0.5"/>
<path d="M270.226 316.6L85.1973 316.6L79.1328 310.786L79.1333 76.9608" stroke="#091521" stroke-width="0.5"/>
<path d="M358.878 492.736L155.067 492.736L148.387 486.056L148.387 256.002" stroke="#091521" stroke-width="0.5"/>
<path d="M706.533 728.542L910.343 728.541L917.023 721.861L917.023 611.134" stroke="#091521" stroke-width="0.5"/>
<path d="M706.532 484.153L910.343 484.153L917.023 490.833L917.023 567.996L917.023 568.887" stroke="#091521" stroke-width="0.5"/>
<path d="M936.525 602.105L938.042 598.903V583.712L936.501 580.511L919.456 567.246H914.304L897.5 580.535L896.008 583.712V598.952L897.524 602.129L914.304 615.37L919.456 615.394L936.525 602.105ZM898.608 581.883L915.412 568.618C915.58 568.473 915.797 568.353 915.99 568.281V583.977C915.677 584.074 910.838 587.877 909.634 588.816L911.054 589.948L916.086 585.879H917.675L922.779 589.948L924.199 588.792C923.308 588.118 918.084 584.05 917.747 583.953V568.281C917.964 568.377 918.18 568.473 918.373 568.642L935.418 581.907C935.442 581.931 935.466 581.955 935.49 581.979L922.803 592.235L922.49 592.476L917.675 596.352H916.086L911.801 592.837L911.608 592.692L906.889 588.792L898.536 581.955C898.56 581.931 898.584 581.907 898.608 581.883ZM915.388 613.998L898.608 600.757C898.487 600.661 898.391 600.54 898.295 600.444L907.01 593.342L905.589 592.187L897.765 598.615V583.688C897.765 583.664 897.765 583.616 897.789 583.592C897.789 583.592 901.569 586.65 905.662 589.972C907.564 591.513 909.538 593.101 911.271 594.474C913.895 596.592 915.893 598.157 916.014 598.205V614.335C915.773 614.263 915.58 614.142 915.388 613.998ZM917.747 598.229C917.891 598.181 920.467 596.159 923.669 593.607C925.451 592.187 927.449 590.598 929.303 589.129C933.058 586.144 936.284 583.592 936.284 583.592C936.284 583.64 936.308 583.688 936.308 583.712V598.615L928.292 592.139L926.895 593.27L935.755 600.42C935.658 600.54 935.562 600.637 935.466 600.733L918.397 614.022C918.204 614.167 918.012 614.287 917.795 614.359V598.229H917.747Z" fill="#0072EC"/>
<path d="M168.269 259.133L169.786 255.931V240.74L168.245 237.538L151.2 224.273H146.048L129.245 237.562L127.752 240.74V255.979L129.269 259.157L146.048 272.398L151.2 272.422L168.269 259.133ZM130.352 238.91L147.156 225.645C147.324 225.501 147.541 225.38 147.734 225.308V241.005C147.421 241.101 142.582 244.905 141.378 245.844L142.798 246.975L147.83 242.907H149.419L154.523 246.975L155.943 245.82C155.052 245.146 149.828 241.077 149.491 240.981V225.308C149.708 225.405 149.924 225.501 150.117 225.669L167.162 238.934C167.186 238.958 167.21 238.983 167.234 239.007L154.547 249.262L154.234 249.503L149.419 253.379H147.83L143.545 249.864L143.352 249.72L138.634 245.82L130.28 238.983C130.304 238.958 130.328 238.934 130.352 238.91ZM147.132 271.026L130.352 257.785C130.232 257.688 130.135 257.568 130.039 257.472L138.754 250.37L137.334 249.214L129.509 255.642V240.716C129.509 240.692 129.509 240.644 129.533 240.62C129.533 240.62 133.313 243.677 137.406 246.999C139.308 248.54 141.282 250.129 143.015 251.501C145.639 253.62 147.637 255.185 147.758 255.233V271.363C147.517 271.29 147.324 271.17 147.132 271.026ZM149.491 255.257C149.636 255.209 152.212 253.186 155.413 250.635C157.195 249.214 159.193 247.625 161.047 246.157C164.802 243.171 168.028 240.62 168.028 240.62C168.028 240.668 168.052 240.716 168.052 240.74V255.642L160.036 249.166L158.639 250.297L167.499 257.448C167.402 257.568 167.306 257.664 167.21 257.761L150.141 271.05C149.949 271.194 149.756 271.314 149.539 271.387V255.257H149.491Z" fill="#0072EC"/>
<path d="M40.5172 714.26L42.0339 711.058V695.867L40.4931 692.665L23.4484 679.4H18.2965L1.49261 692.689L0 695.867V711.106L1.51669 714.284L18.2965 727.525L23.4484 727.549L40.5172 714.26ZM2.60003 694.037L19.4039 680.772C19.5725 680.628 19.7891 680.507 19.9817 680.435V696.132C19.6688 696.228 14.8298 700.032 13.6261 700.971L15.0465 702.102L20.078 698.033H21.6669L26.7707 702.102L28.1911 700.946C27.3003 700.272 22.0762 696.204 21.7392 696.108V680.435C21.9558 680.531 22.1725 680.628 22.3651 680.796L39.4098 694.061C39.4338 694.085 39.4579 694.109 39.482 694.133L26.7948 704.389L26.4818 704.63L21.6669 708.506H20.078L15.7928 704.991L15.6002 704.847L10.8816 700.946L2.52781 694.109C2.55188 694.085 2.57596 694.061 2.60003 694.037ZM19.3799 726.152L2.60003 712.911C2.47966 712.815 2.38336 712.695 2.28707 712.598L11.002 705.497L9.5816 704.341L1.75743 710.769V695.843C1.75743 695.819 1.75743 695.77 1.7815 695.746C1.7815 695.746 5.56118 698.804 9.65382 702.126C11.5557 703.667 13.5298 705.256 15.2632 706.628C17.8873 708.747 19.8854 710.311 20.0058 710.36V726.489C19.7651 726.417 19.5725 726.297 19.3799 726.152ZM21.7392 710.384C21.8836 710.335 24.4596 708.313 27.6615 705.761C29.443 704.341 31.4411 702.752 33.2949 701.284C37.0505 698.298 40.2764 695.746 40.2764 695.746C40.2764 695.795 40.3005 695.843 40.3005 695.867V710.769L32.2837 704.293L30.8874 705.424L39.7468 712.574C39.6505 712.695 39.5542 712.791 39.4579 712.887L22.3892 726.176C22.1966 726.321 22.004 726.441 21.7873 726.513V710.384H21.7392Z" fill="#0072EC"/>
<path d="M98.6324 64.9449L100.149 61.743V46.5521L98.6083 43.3502L81.5637 30.0852H76.4118L59.6078 43.3743L58.1152 46.5521V61.7912L59.6319 64.969L76.4118 78.2099L81.5637 78.234L98.6324 64.9449ZM60.7153 44.7224L77.5192 31.4574C77.6877 31.313 77.9044 31.1926 78.097 31.1204V46.8169C77.784 46.9132 72.9451 50.7169 71.7413 51.6558L73.1617 52.7873L78.1933 48.7188H79.7822L84.8859 52.7873L86.3063 51.6318C85.4156 50.9577 80.1914 46.8891 79.8544 46.7928V31.1204C80.0711 31.2167 80.2877 31.313 80.4803 31.4815L97.525 44.7465C97.5491 44.7706 97.5731 44.7947 97.5972 44.8187L84.91 55.0744L84.597 55.3152L79.7822 59.1911H78.1933L73.908 55.6763L73.7154 55.5318L68.9969 51.6318L60.643 44.7947C60.6671 44.7706 60.6912 44.7465 60.7153 44.7224ZM77.4951 76.8376L60.7153 63.5967C60.5949 63.5004 60.4986 63.3801 60.4023 63.2838L69.1172 56.1818L67.6968 55.0263L59.8727 61.4541V46.528C59.8727 46.5039 59.8727 46.4558 59.8967 46.4317C59.8967 46.4317 63.6764 49.4892 67.7691 52.8114C69.6709 54.3522 71.645 55.9411 73.3784 57.3133C76.0025 59.4319 78.0007 60.9967 78.121 61.0449V77.1747C77.8803 77.1025 77.6877 76.9821 77.4951 76.8376ZM79.8544 61.0689C79.9988 61.0208 82.5748 58.9985 85.7767 56.4466C87.5582 55.0263 89.5564 53.4374 91.4101 51.9688C95.1657 48.9836 98.3917 46.4317 98.3917 46.4317C98.3917 46.4799 98.4157 46.528 98.4157 46.5521V61.4541L90.399 54.9781L89.0027 56.1096L97.862 63.2597C97.7657 63.3801 97.6694 63.4764 97.5731 63.5727L80.5044 76.8617C80.3118 77.0062 80.1192 77.1265 79.9025 77.1988V61.0689H79.8544Z" fill="#0072EC"/>
<path d="M1034.92 533.327L1036.44 530.125V514.934L1034.9 511.732L1017.85 498.467H1012.7L995.899 511.756L994.406 514.934V530.173L995.923 533.351L1012.7 546.592L1017.85 546.616L1034.92 533.327ZM997.006 513.105L1013.81 499.84C1013.98 499.695 1014.2 499.575 1014.39 499.502V515.199C1014.08 515.295 1009.24 519.099 1008.03 520.038L1009.45 521.169L1014.48 517.101H1016.07L1021.18 521.169L1022.6 520.014C1021.71 519.34 1016.48 515.271 1016.15 515.175V499.502C1016.36 499.599 1016.58 499.695 1016.77 499.864L1033.82 513.129C1033.84 513.153 1033.86 513.177 1033.89 513.201L1021.2 523.456L1020.89 523.697L1016.07 527.573H1014.48L1010.2 524.058L1010.01 523.914L1005.29 520.014L996.934 513.177C996.958 513.153 996.982 513.129 997.006 513.105ZM1013.79 545.22L997.006 531.979C996.886 531.883 996.79 531.762 996.693 531.666L1005.41 524.564L1003.99 523.408L996.164 529.836V514.91C996.164 514.886 996.164 514.838 996.188 514.814C996.188 514.814 999.967 517.871 1004.06 521.193C1005.96 522.734 1007.94 524.323 1009.67 525.695C1012.29 527.814 1014.29 529.379 1014.41 529.427V545.557C1014.17 545.485 1013.98 545.364 1013.79 545.22ZM1016.15 529.451C1016.29 529.403 1018.87 527.381 1022.07 524.829C1023.85 523.408 1025.85 521.819 1027.7 520.351C1031.46 517.366 1034.68 514.814 1034.68 514.814C1034.68 514.862 1034.71 514.91 1034.71 514.934V529.836L1026.69 523.36L1025.29 524.492L1034.15 531.642C1034.06 531.762 1033.96 531.858 1033.86 531.955L1016.8 545.244C1016.6 545.388 1016.41 545.509 1016.19 545.581V529.451H1016.15Z" fill="#0072EC"/>
<path d="M1100.48 34.9383L1102 31.7364V16.5455L1100.46 13.3436L1083.42 0.0786133H1078.26L1061.46 13.3677L1059.97 16.5455V31.7846L1061.48 34.9624L1078.26 48.2033L1083.42 48.2274L1100.48 34.9383ZM1062.57 14.7158L1079.37 1.45085C1079.54 1.30641 1079.76 1.18603 1079.95 1.11381V16.8103C1079.64 16.9066 1074.8 20.7104 1073.59 21.6493L1075.01 22.7808L1080.04 18.7122H1081.63L1086.74 22.7808L1088.16 21.6252C1087.27 20.9511 1082.04 16.8825 1081.71 16.7862V1.11381C1081.92 1.21011 1082.14 1.30641 1082.33 1.47493L1099.38 14.7399C1099.4 14.764 1099.42 14.7881 1099.45 14.8121L1086.76 25.0678L1086.45 25.3086L1081.63 29.1845H1080.04L1075.76 25.6697L1075.57 25.5252L1070.85 21.6252L1062.49 14.7881C1062.52 14.764 1062.54 14.7399 1062.57 14.7158ZM1079.35 46.8311L1062.57 33.5901C1062.45 33.4939 1062.35 33.3735 1062.25 33.2772L1070.97 26.1752L1069.55 25.0197L1061.72 31.4475V16.5214C1061.72 16.4973 1061.72 16.4492 1061.75 16.4251C1061.75 16.4251 1065.53 19.4826 1069.62 22.8048C1071.52 24.3456 1073.5 25.9345 1075.23 27.3067C1077.85 29.4253 1079.85 30.9901 1079.97 31.0383V47.1681C1079.73 47.0959 1079.54 46.9755 1079.35 46.8311ZM1081.71 31.0623C1081.85 31.0142 1084.43 28.9919 1087.63 26.4401C1089.41 25.0197 1091.41 23.4308 1093.26 21.9622C1097.02 18.977 1100.24 16.4251 1100.24 16.4251C1100.24 16.4733 1100.27 16.5214 1100.27 16.5455V31.4475L1092.25 24.9715L1090.85 26.103L1099.71 33.2531C1099.62 33.3735 1099.52 33.4698 1099.42 33.5661L1082.36 46.8551C1082.16 46.9996 1081.97 47.1199 1081.75 47.1922V31.0623H1081.71Z" fill="#0072EC"/>
</svg>
